<svg width="35" height="35" viewBox="0 0 35 35" fill="none" xmlns="http://www.w3.org/2000/svg">
<rect x="0.5" y="0.5" width="34" height="34" rx="9.5" stroke="#C4C4C4"/>
<path d="M25.4559 14.9208C25.4475 14.2896 25.3293 13.6648 25.1067 13.0741C24.9137 12.5759 24.6188 12.1235 24.241 11.7457C23.8632 11.3678 23.4108 11.073 22.9126 10.88C22.3295 10.6611 21.7135 10.5427 21.0909 10.53C20.2892 10.4941 20.0351 10.4841 18.0001 10.4841C15.9651 10.4841 15.7042 10.4841 14.9084 10.53C14.286 10.5428 13.6703 10.6612 13.0876 10.88C12.5893 11.0729 12.1367 11.3677 11.7589 11.7455C11.3811 12.1233 11.0863 12.5758 10.8934 13.0741C10.6741 13.6567 10.556 14.2726 10.5442 14.895C10.5084 15.6975 10.4976 15.9516 10.4976 17.9866C10.4976 20.0216 10.4976 20.2816 10.5442 21.0783C10.5567 21.7016 10.6742 22.3166 10.8934 22.9008C11.0866 23.3989 11.3816 23.8513 11.7596 24.2289C12.1375 24.6066 12.5901 24.9013 13.0884 25.0941C13.6696 25.3218 14.2854 25.4486 14.9092 25.4691C15.7117 25.505 15.9659 25.5158 18.0009 25.5158C20.0359 25.5158 20.2967 25.5158 21.0926 25.4691C21.7152 25.4569 22.3312 25.3388 22.9142 25.12C23.4123 24.9267 23.8646 24.6318 24.2424 24.254C24.6202 23.8762 24.9151 23.4239 25.1084 22.9258C25.3276 22.3425 25.4451 21.7275 25.4576 21.1033C25.4934 20.3016 25.5042 20.0475 25.5042 18.0116C25.5026 15.9766 25.5026 15.7183 25.4559 14.9208ZM17.9951 21.835C15.8667 21.835 14.1426 20.1108 14.1426 17.9825C14.1426 15.8541 15.8667 14.13 17.9951 14.13C19.0168 14.13 19.9967 14.5359 20.7192 15.2583C21.4417 15.9808 21.8476 16.9607 21.8476 17.9825C21.8476 19.0042 21.4417 19.9841 20.7192 20.7066C19.9967 21.4291 19.0168 21.835 17.9951 21.835ZM22.0009 14.8858C21.8829 14.8859 21.766 14.8627 21.657 14.8176C21.5479 14.7725 21.4489 14.7064 21.3654 14.6229C21.282 14.5395 21.2158 14.4404 21.1707 14.3314C21.1256 14.2223 21.1024 14.1055 21.1026 13.9875C21.1026 13.8695 21.1258 13.7528 21.1709 13.6438C21.216 13.5349 21.2822 13.4359 21.3656 13.3525C21.4489 13.2692 21.5479 13.203 21.6569 13.1579C21.7658 13.1128 21.8826 13.0895 22.0005 13.0895C22.1184 13.0895 22.2352 13.1128 22.3441 13.1579C22.453 13.203 22.552 13.2692 22.6354 13.3525C22.7188 13.4359 22.7849 13.5349 22.83 13.6438C22.8752 13.7528 22.8984 13.8695 22.8984 13.9875C22.8984 14.4841 22.4967 14.8858 22.0009 14.8858Z" fill="white"/>
<path d="M17.9952 20.485C19.3773 20.485 20.4977 19.3646 20.4977 17.9825C20.4977 16.6004 19.3773 15.48 17.9952 15.48C16.6131 15.48 15.4927 16.6004 15.4927 17.9825C15.4927 19.3646 16.6131 20.485 17.9952 20.485Z" fill="white"/>
</svg>
